<mxfile host="app.diagrams.net" modified="2023-10-12T08:34:41.130Z" agent="Mozilla/5.0 (Windows NT 10.0; Win64; x64) AppleWebKit/537.36 (KHTML, like Gecko) Chrome/117.0.0.0 Safari/537.36" etag="KLsGkwz9byaBKB-CXyXj" version="22.0.4" type="github">
  <diagram name="第 1 页" id="5w4xWFcqgFUNlSF96ZhI">
    <mxGraphModel dx="1562" dy="913" grid="1" gridSize="10" guides="1" tooltips="1" connect="1" arrows="1" fold="1" page="1" pageScale="1" pageWidth="827" pageHeight="1169" math="0" shadow="0">
      <root>
        <mxCell id="0" />
        <mxCell id="1" parent="0" />
        <mxCell id="AFLd7Nvr0Oi2rzf2S3Nq-23" value="" style="edgeStyle=orthogonalEdgeStyle;rounded=0;orthogonalLoop=1;jettySize=auto;html=1;" parent="1" source="AFLd7Nvr0Oi2rzf2S3Nq-2" edge="1">
          <mxGeometry relative="1" as="geometry">
            <mxPoint x="220" y="170" as="targetPoint" />
          </mxGeometry>
        </mxCell>
        <mxCell id="AFLd7Nvr0Oi2rzf2S3Nq-2" value="开始" style="rounded=1;whiteSpace=wrap;html=1;fontSize=12;glass=0;strokeWidth=1;shadow=0;" parent="1" vertex="1">
          <mxGeometry x="160" y="80" width="120" height="40" as="geometry" />
        </mxCell>
        <mxCell id="AFLd7Nvr0Oi2rzf2S3Nq-9" value="" style="edgeStyle=orthogonalEdgeStyle;rounded=0;orthogonalLoop=1;jettySize=auto;html=1;exitX=0.5;exitY=1;exitDx=0;exitDy=0;" parent="1" source="AFLd7Nvr0Oi2rzf2S3Nq-15" edge="1">
          <mxGeometry relative="1" as="geometry">
            <mxPoint x="220" y="160" as="sourcePoint" />
            <mxPoint x="220" y="270" as="targetPoint" />
          </mxGeometry>
        </mxCell>
        <mxCell id="AFLd7Nvr0Oi2rzf2S3Nq-10" value="结束" style="rounded=1;whiteSpace=wrap;html=1;fontSize=12;glass=0;strokeWidth=1;shadow=0;" parent="1" vertex="1">
          <mxGeometry x="160" y="660" width="120" height="40" as="geometry" />
        </mxCell>
        <mxCell id="AFLd7Nvr0Oi2rzf2S3Nq-30" value="" style="edgeStyle=orthogonalEdgeStyle;rounded=0;orthogonalLoop=1;jettySize=auto;html=1;" parent="1" source="AFLd7Nvr0Oi2rzf2S3Nq-11" target="AFLd7Nvr0Oi2rzf2S3Nq-27" edge="1">
          <mxGeometry relative="1" as="geometry" />
        </mxCell>
        <mxCell id="AFLd7Nvr0Oi2rzf2S3Nq-11" value="标注公告紧急程度" style="rounded=1;whiteSpace=wrap;html=1;fontSize=12;glass=0;strokeWidth=1;shadow=0;" parent="1" vertex="1">
          <mxGeometry x="160" y="370" width="120" height="50" as="geometry" />
        </mxCell>
        <mxCell id="AFLd7Nvr0Oi2rzf2S3Nq-15" value="发布新公告" style="rounded=1;whiteSpace=wrap;html=1;fontSize=12;glass=0;strokeWidth=1;shadow=0;" parent="1" vertex="1">
          <mxGeometry x="160" y="170" width="120" height="50" as="geometry" />
        </mxCell>
        <mxCell id="AFLd7Nvr0Oi2rzf2S3Nq-16" value="" style="edgeStyle=orthogonalEdgeStyle;rounded=0;orthogonalLoop=1;jettySize=auto;html=1;" parent="1" source="AFLd7Nvr0Oi2rzf2S3Nq-17" target="AFLd7Nvr0Oi2rzf2S3Nq-11" edge="1">
          <mxGeometry relative="1" as="geometry" />
        </mxCell>
        <mxCell id="AFLd7Nvr0Oi2rzf2S3Nq-17" value="输入公告内容" style="rounded=1;whiteSpace=wrap;html=1;fontSize=12;glass=0;strokeWidth=1;shadow=0;" parent="1" vertex="1">
          <mxGeometry x="160" y="270" width="120" height="50" as="geometry" />
        </mxCell>
        <mxCell id="AFLd7Nvr0Oi2rzf2S3Nq-29" value="" style="edgeStyle=orthogonalEdgeStyle;rounded=0;orthogonalLoop=1;jettySize=auto;html=1;" parent="1" source="AFLd7Nvr0Oi2rzf2S3Nq-27" target="AFLd7Nvr0Oi2rzf2S3Nq-28" edge="1">
          <mxGeometry relative="1" as="geometry" />
        </mxCell>
        <mxCell id="AFLd7Nvr0Oi2rzf2S3Nq-34" value="" style="edgeStyle=orthogonalEdgeStyle;rounded=0;orthogonalLoop=1;jettySize=auto;html=1;" parent="1" source="AFLd7Nvr0Oi2rzf2S3Nq-27" target="AFLd7Nvr0Oi2rzf2S3Nq-32" edge="1">
          <mxGeometry relative="1" as="geometry" />
        </mxCell>
        <mxCell id="AFLd7Nvr0Oi2rzf2S3Nq-27" value="是否立即发布？" style="rhombus;whiteSpace=wrap;html=1;shadow=0;fontFamily=Helvetica;fontSize=12;align=center;strokeWidth=1;spacing=6;spacingTop=-4;" parent="1" vertex="1">
          <mxGeometry x="170" y="460" width="100" height="80" as="geometry" />
        </mxCell>
        <mxCell id="AFLd7Nvr0Oi2rzf2S3Nq-39" value="" style="edgeStyle=orthogonalEdgeStyle;rounded=0;orthogonalLoop=1;jettySize=auto;html=1;" parent="1" source="AFLd7Nvr0Oi2rzf2S3Nq-28" target="AFLd7Nvr0Oi2rzf2S3Nq-10" edge="1">
          <mxGeometry relative="1" as="geometry" />
        </mxCell>
        <mxCell id="AFLd7Nvr0Oi2rzf2S3Nq-28" value="发布" style="rounded=1;whiteSpace=wrap;html=1;fontSize=12;glass=0;strokeWidth=1;shadow=0;" parent="1" vertex="1">
          <mxGeometry x="160" y="580" width="120" height="40" as="geometry" />
        </mxCell>
        <mxCell id="AFLd7Nvr0Oi2rzf2S3Nq-38" value="" style="edgeStyle=orthogonalEdgeStyle;rounded=0;orthogonalLoop=1;jettySize=auto;html=1;entryX=1;entryY=0.5;entryDx=0;entryDy=0;" parent="1" source="AFLd7Nvr0Oi2rzf2S3Nq-32" target="AFLd7Nvr0Oi2rzf2S3Nq-10" edge="1">
          <mxGeometry relative="1" as="geometry">
            <mxPoint x="360" y="640" as="targetPoint" />
            <Array as="points">
              <mxPoint x="410" y="680" />
            </Array>
          </mxGeometry>
        </mxCell>
        <mxCell id="AFLd7Nvr0Oi2rzf2S3Nq-32" value="定时发布" style="rounded=1;whiteSpace=wrap;html=1;fontSize=12;glass=0;strokeWidth=1;shadow=0;" parent="1" vertex="1">
          <mxGeometry x="350" y="475" width="120" height="50" as="geometry" />
        </mxCell>
        <mxCell id="AFLd7Nvr0Oi2rzf2S3Nq-35" value="否" style="text;html=1;align=center;verticalAlign=middle;resizable=0;points=[];autosize=1;strokeColor=none;fillColor=none;" parent="1" vertex="1">
          <mxGeometry x="280" y="468" width="40" height="30" as="geometry" />
        </mxCell>
        <mxCell id="AFLd7Nvr0Oi2rzf2S3Nq-36" value="是" style="text;html=1;align=center;verticalAlign=middle;resizable=0;points=[];autosize=1;strokeColor=none;fillColor=none;" parent="1" vertex="1">
          <mxGeometry x="210" y="528" width="40" height="30" as="geometry" />
        </mxCell>
      </root>
    </mxGraphModel>
  </diagram>
</mxfile>
